<?xml version="1.0" standalone="no"?>
<!DOCTYPE svg PUBLIC "-//W3C//DTD SVG 20010904//EN"
 "http://www.w3.org/TR/2001/REC-SVG-20010904/DTD/svg10.dtd">
<svg version="1.0" xmlns="http://www.w3.org/2000/svg"
 width="228.000000pt" height="282.000000pt" viewBox="0 0 228.000000 282.000000"
 preserveAspectRatio="xMidYMid meet">

<g transform="translate(0.000000,282.000000) scale(0.100000,-0.100000)"
fill="#000000" stroke="none">
<path d="M926 1428 c-7 -13 -24 -51 -37 -85 -13 -35 -26 -63 -30 -63 -3 0 -19
35 -36 78 l-30 77 -44 0 -44 0 0 -130 c0 -127 0 -130 23 -133 22 -3 22 -1 22
99 0 122 8 121 48 -7 27 -86 29 -89 57 -89 28 0 31 4 56 75 43 127 48 129 49
17 l0 -98 28 3 27 3 3 124 c2 82 -1 128 -9 137 -18 22 -66 17 -83 -8z"/>
<path d="M1074 1437 c-2 -7 -3 -69 -2 -138 l3 -124 78 -3 c77 -3 77 -3 77 23
0 23 -3 25 -50 25 l-50 0 0 34 c0 34 1 35 43 38 34 2 42 7 42 23 0 16 -8 21
-42 23 -40 3 -43 5 -43 33 0 28 1 29 50 29 46 0 50 2 50 24 0 23 -3 24 -75 25
-55 1 -77 -2 -81 -12z"/>
<path d="M1396 1429 c-51 -40 -28 -113 48 -144 24 -10 36 -22 36 -35 0 -35
-52 -45 -88 -17 -20 15 -40 -8 -26 -31 29 -45 140 -36 162 13 25 53 6 92 -59
126 -55 28 -50 55 9 52 38 -2 42 0 42 22 0 40 -79 50 -124 14z"/>
<path d="M307 1413 c-4 -23 -3 -177 2 -220 1 -9 21 -13 66 -13 58 0 65 2 65
19 0 16 -8 20 -42 23 l-43 3 -3 108 c-2 97 -4 107 -22 107 -12 0 -20 -9 -23
-27z"/>
<path d="M470 1426 c0 -7 16 -43 35 -80 26 -50 35 -80 35 -116 0 -30 5 -50 13
-53 27 -9 37 6 37 54 0 37 9 68 35 119 41 82 43 92 13 88 -16 -2 -30 -18 -46
-51 -12 -26 -27 -45 -32 -42 -5 3 -18 26 -29 50 -14 32 -26 45 -40 45 -12 0
-21 -6 -21 -14z"/>
<path d="M1717 1328 c-20 -62 -37 -121 -37 -130 0 -30 35 -21 47 12 10 28 15
30 63 30 48 0 52 -2 61 -30 10 -28 41 -41 53 -22 4 7 -64 218 -78 241 -4 6
-22 11 -40 11 l-32 0 -37 -112z m91 19 c20 -56 16 -67 -23 -67 -19 0 -35 1
-35 3 0 14 33 97 39 97 4 0 12 -15 19 -33z"/>
<path d="M1598 1233 c-11 -3 -18 -14 -18 -29 0 -19 5 -24 25 -24 14 0 28 7 32
16 7 20 -16 42 -39 37z"/>
<path d="M1957 1217 c-8 -21 8 -39 29 -35 27 5 25 42 -2 46 -12 2 -24 -3 -27
-11z"/>
</g>
</svg>
